<?xml version="1.0" standalone="no"?><!DOCTYPE svg PUBLIC "-//W3C//DTD SVG 1.1//EN" "http://www.w3.org/Graphics/SVG/1.1/DTD/svg11.dtd"><svg t="1677828570950" class="icon" viewBox="0 0 1024 1024" version="1.1" xmlns="http://www.w3.org/2000/svg" p-id="2510" xmlns:xlink="http://www.w3.org/1999/xlink" width="200" height="200"><path d="M216.064 370.688c41.984 12.288 68.608 36.864 71.68 81.92 1.024 11.264 3.072 25.6-15.36 21.504-12.288-3.072-35.84 14.336-35.84-16.384-1.024-22.528-11.264-35.84-34.816-35.84s-33.792 14.336-34.816 35.84c-1.024 62.464-1.024 124.928 0 186.88 1.024 25.6 16.384 38.912 36.864 36.864 22.528-3.072 32.768-17.408 32.768-38.912 0-11.264-1.024-22.528 0-33.792 1.024-20.48 3.072-39.936-28.672-34.816-15.36 3.072-12.288-11.264-11.264-19.456 1.024-9.216-8.192-23.552 10.24-26.624 4.096-1.024 7.168 0 10.24 0 71.68-2.048 71.68-2.048 71.68 68.608 0 17.408 1.024 34.816 0 51.2-2.048 44.032-27.648 72.704-70.656 81.92-10.24 4.096-20.48 1.024-30.72 2.048-45.056-3.072-71.68-30.72-74.752-74.752-1.024-17.408-1.024-33.792-1.024-51.2 1.024-16.384-6.144-24.576-22.528-23.552h-13.312c-60.416-1.024-66.56-7.168-67.584-68.608 0-14.336 3.072-29.696-8.192-41.984v-5.12c7.168-13.312 15.36-26.624 25.6-38.912 7.168-8.192 14.336-11.264 24.576-4.096 19.456 13.312 27.648 38.912 21.504 61.44-4.096 12.288-8.192 26.624 7.168 33.792 15.36 8.192 30.72-1.024 32.768-19.456 1.024-14.336 1.024-27.648 1.024-40.96-0.512-52.736 21.504-79.36 72.704-89.088 10.24 1.536 20.48 1.536 30.72 1.536zM425.472 370.688c70.656 28.672 93.184 76.8 71.68 148.992-4.096 13.312-9.216 27.648-21.504 34.816-17.408 11.264-14.336 23.552-9.216 38.912 14.336 39.936 27.648 80.896 41.984 120.832 5.12 13.312 2.048 15.36-11.264 16.384-26.624 3.072-41.984-3.072-48.128-32.768-8.192-35.84-22.528-69.632-31.744-105.472-4.096-13.312-10.24-18.432-23.552-17.408-15.36 2.048-11.264 13.312-11.264 21.504-1.024 38.912-1.024 76.8 0 115.712 1.024 18.432-9.216 20.48-22.528 17.408-11.264-2.048-29.696 9.216-29.696-16.384 1.024-112.64 1.024-224.768 1.024-337.408 28.672-7.168 58.368 2.048 87.04-5.12H425.472zM635.392 370.688c84.992 24.576 77.824 88.064 68.608 154.112-5.12 32.768-33.792 51.2-76.8 49.152-27.648-1.024-34.816 8.192-32.768 34.816 2.048 33.792-1.024 66.56 1.024 100.352 1.024 20.48-8.192 22.528-24.576 21.504-14.336-1.024-28.672 5.12-28.672-20.48 2.048-111.616 2.048-221.696 2.048-333.312 19.456-7.168 39.936-1.024 59.392-3.072 9.216-1.024 18.432 3.072 27.648-3.072h4.096zM845.824 370.688c39.936 15.36 63.488 41.984 62.464 86.016 0 12.288-3.072 21.504-16.384 18.432-12.288-3.072-33.792 12.288-34.816-16.384 0-2.048 0-4.096-1.024-5.12-2.048-18.432-11.264-30.72-30.72-31.744-21.504-1.024-30.72 13.312-30.72 30.72-1.024 66.56-1.024 132.608-1.024 199.168 0 18.432 12.288 30.72 31.744 29.696 18.432-1.024 31.744-12.288 29.696-31.744-2.048-32.768 20.48-21.504 35.84-22.528 23.552-2.048 15.36 16.384 15.36 26.624-1.024 36.864-22.528 61.44-61.44 75.776-12.288 6.144-25.6-2.048-36.864 5.12h-5.12c-51.2-20.48-64.512-61.44-61.44-112.64 3.072-50.176 1.024-100.352 1.024-150.016 0-60.416 13.312-79.872 66.56-100.352 12.288-1.024 24.576-1.024 36.864-1.024z" fill="#33BFAD" p-id="2511"></path><path d="M1024.512 631.296c-16.384 13.312-23.552 32.768-38.912 48.128-14.336-11.264-22.528-28.672-32.768-43.008-3.072-4.096-4.096-6.144 2.048-11.264 14.336-12.288 8.192-30.72 5.12-45.056-3.072-13.312-17.408-6.144-26.624-6.144-20.48-1.024-40.96-1.024-61.44 0-18.432 1.024-16.384-11.264-15.36-22.528 1.024-11.264-5.12-25.6 15.36-25.6 36.864 1.024 73.728 0 109.568 0 18.432 0 26.624 10.24 26.624 27.648 1.024 18.432 1.024 37.888 0 56.32-1.024 12.288 4.096 17.408 16.384 15.36v6.144z" fill="#34C0AE" p-id="2512"></path><path d="M420.352 370.688c-28.672 11.264-58.368 3.072-87.04 5.12-1.024-2.048 0-3.072 0-5.12h87.04zM630.272 370.688c-28.672 12.288-58.368 2.048-86.016 6.144 0-2.048 0-4.096-1.024-6.144h87.04z" fill="#9FE0D8" p-id="2513"></path><path d="M809.984 734.72c11.264-10.24 24.576-3.072 36.864-5.12-1.024 2.048-1.024 3.072-1.024 5.12h-35.84z" fill="#94DDD4" p-id="2514"></path><path d="M185.344 734.72c0-2.048-1.024-3.072-1.024-4.096h31.744c-1.024 2.048-1.024 3.072-1.024 5.12-9.216-1.024-19.456-1.024-29.696-1.024z" fill="#97DED5" p-id="2515"></path><path d="M452.096 471.04c0 47.104-14.336 61.44-54.272 58.368-11.264-1.024-15.36-5.12-15.36-15.36 1.024-19.456-2.048-39.936 1.024-58.368 2.048-12.288-12.288-32.768 16.384-33.792 32.768-1.024 48.128 8.192 51.2 32.768 1.024 6.144 1.024 13.312 1.024 16.384zM660.48 470.016c0 19.456 2.048 32.768-7.168 44.032-13.312 18.432-33.792 18.432-51.2 14.336-16.384-3.072-7.168-19.456-8.192-30.72-2.048-15.36-2.048-30.72 0-46.08 2.048-10.24-11.264-27.648 11.264-30.72 28.672-4.096 47.104 4.096 52.224 24.576 3.072 11.264 3.072 21.504 3.072 24.576z" fill="#FDFEFE" p-id="2516"></path></svg>