<svg xmlns="http://www.w3.org/2000/svg" xmlns:xlink="http://www.w3.org/1999/xlink" version="1.0" viewBox="0 -18 128 128">  <!----> <g data-v-70b83f88="" fill="#333" class="icon-text-wrapper icon-svg-group iconsvg"><g class="iconsvg-imagesvg" transform="translate(8.125,0)" mask="url(#6cbceb8b-5756-4d73-a528-9727ade6bc17)"><g><rect fill="#333" fill-opacity="0" stroke-width="2" x="0" y="0" width="100" height="90.0827860804079" class="image-rect"/> <svg filter="url(#colors8714898138)" x="0" y="0" width="100" height="90.0827860804079" filtersec="colorsf6294964635" class="image-svg-svg primary" style="overflow: visible;"><svg xmlns="http://www.w3.org/2000/svg" xmlns:xlink="http://www.w3.org/1999/xlink" version="1.1" x="0px" y="0px" viewBox="6.316999912261963 12.413999557495117 115.25499725341797 103.82510375976562" enable-background="new 0 0 128 128" xml:space="preserve"><g><path d="M51.232,65.586H37.91c-1.496,0-2.707,1.211-2.707,2.707c0,1.496,1.211,2.707,2.707,2.707h13.322   c1.496,0,2.707-1.211,2.707-2.707C53.939,66.797,52.728,65.586,51.232,65.586z"/><path d="M88.838,65.586H75.516c-1.496,0-2.707,1.211-2.707,2.707c0,1.496,1.211,2.707,2.707,2.707h13.322   c1.496,0,2.707-1.211,2.707-2.707S90.335,65.586,88.838,65.586z"/><path d="M121.572,37.467c0-13.814-11.238-25.053-25.053-25.053S71.465,23.652,71.465,37.467c0,0.919,0.069,1.837,0.169,2.749   H56.251c0.1-0.911,0.169-1.828,0.169-2.749c0-13.814-11.238-25.053-25.053-25.053S6.317,23.652,6.317,37.467   c0,10.497,6.66,19.803,16.366,23.412l-0.001,0.068c-0.018,1.124-0.04,2.44-0.04,11.953c0,0.692,0.265,1.357,0.74,1.859   l37.788,39.98c1.559,1.72,3.455,2.262,5.545,0l37.791-39.98c0.476-0.502,0.74-1.166,0.74-1.859c0-9.494-0.024-10.826-0.042-11.948   l-0.001-0.072C114.911,57.271,121.572,47.964,121.572,37.467z M63.944,109.789l-9.445-9.993c5.504-3.635,13.114-3.448,18.42,0.498   L63.944,109.789z M101.838,56.375c-0.036,0.01-0.06,0.037-0.095,0.049c-1.135,0.326-1.981,1.33-1.975,2.572l0.022,2.052   c0.018,1.068,0.04,2.33,0.042,10.776L76.639,96.36c-7.356-5.825-18.295-6.011-25.868-0.506L28.056,71.823   c0.003-8.468,0.022-9.716,0.04-10.787l0.022-2.042c0.006-1.239-0.838-2.243-1.971-2.57c-0.036-0.012-0.06-0.04-0.096-0.05   c-8.431-2.367-14.319-10.141-14.319-18.908c0-10.829,8.809-19.638,19.635-19.638c10.829,0,19.638,8.809,19.638,19.638   c0,0.932-0.209,1.834-0.338,2.749H37.672c-1.496,0-2.707,1.211-2.707,2.707s1.211,2.707,2.707,2.707h51.167   c1.496,0,2.707-1.211,2.707-2.707s-1.211-2.707-2.707-2.707h-11.62c-0.129-0.916-0.338-1.823-0.338-2.749   c0-10.829,8.809-19.638,19.638-19.638s19.638,8.809,19.638,19.638C116.157,46.234,110.269,54.008,101.838,56.375z"/></g></svg></svg> <defs><filter id="colors8714898138"><feColorMatrix type="matrix" values="0 0 0 0 0.80859375  0 0 0 0 0.8828125  0 0 0 0 0.94921875  0 0 0 1 0" class="icon-fecolormatrix"/></filter> <filter id="colorsf6294964635"><feColorMatrix type="matrix" values="0 0 0 0 0.99609375  0 0 0 0 0.99609375  0 0 0 0 0.99609375  0 0 0 1 0" class="icon-fecolormatrix"/></filter> <filter id="colorsb261488522"><feColorMatrix type="matrix" values="0 0 0 0 0  0 0 0 0 0  0 0 0 0 0  0 0 0 1 0" class="icon-fecolormatrix"/></filter></defs></g><rect v-gra="id" width="112" height="102.0827865600586" transform="translate(-6, -6)" style="pointer-events:none;" fill="url(#6RdTydssYBIdPliuuxCH6)"/></g> </g><defs v-gra="od"/><defs v-gra="id"><filter id="c1a4d0ac-0323-4457-a844-0223dfb2c35f" filterUnits="userSpaceOnUse"><feColorMatrix type="matrix" values="0 0 0 0 0.99609375  0 0 0 0 0.99609375  0 0 0 0 0.99609375  0 0 0 1 0"/></filter><linearGradient x1="0" y1="1" x2="0" y2="0" id="6RdTydssYBIdPliuuxCH6"><stop offset="0%" stop-color="#ff51f9"/><stop offset="50%" stop-color="#a348ff"/><stop offset="100%" stop-color="#3978ff"/></linearGradient><filter id="42443b3f1de60f6b6fd3b6a9844b4764" filterUnits="userSpaceOnUse"><feColorMatrix type="matrix" values="0 0 0 0 0.99609375  0 0 0 0 0.99609375  0 0 0 0 0.99609375  0 0 0 1 0"/></filter></defs><mask v-gra="im" id="6cbceb8b-5756-4d73-a528-9727ade6bc17"><g class="iconsvg-imagesvg" filter="url(#c1a4d0ac-0323-4457-a844-0223dfb2c35f)"><g><rect fill="#333" fill-opacity="0" stroke-width="2" x="0" y="0" width="100" height="90.0827860804079" class="image-rect"/> <svg x="0" y="0" width="100" height="90.0827860804079" filtersec="colorsf6294964635" class="image-svg-svg primary" style="overflow: visible;"><svg xmlns="http://www.w3.org/2000/svg" xmlns:xlink="http://www.w3.org/1999/xlink" version="1.1" x="0px" y="0px" viewBox="6.316999912261963 12.413999557495117 115.25499725341797 103.82510375976562" enable-background="new 0 0 128 128" xml:space="preserve"><g><path d="M51.232,65.586H37.91c-1.496,0-2.707,1.211-2.707,2.707c0,1.496,1.211,2.707,2.707,2.707h13.322   c1.496,0,2.707-1.211,2.707-2.707C53.939,66.797,52.728,65.586,51.232,65.586z"/><path d="M88.838,65.586H75.516c-1.496,0-2.707,1.211-2.707,2.707c0,1.496,1.211,2.707,2.707,2.707h13.322   c1.496,0,2.707-1.211,2.707-2.707S90.335,65.586,88.838,65.586z"/><path d="M121.572,37.467c0-13.814-11.238-25.053-25.053-25.053S71.465,23.652,71.465,37.467c0,0.919,0.069,1.837,0.169,2.749   H56.251c0.1-0.911,0.169-1.828,0.169-2.749c0-13.814-11.238-25.053-25.053-25.053S6.317,23.652,6.317,37.467   c0,10.497,6.66,19.803,16.366,23.412l-0.001,0.068c-0.018,1.124-0.04,2.44-0.04,11.953c0,0.692,0.265,1.357,0.74,1.859   l37.788,39.98c1.559,1.72,3.455,2.262,5.545,0l37.791-39.98c0.476-0.502,0.74-1.166,0.74-1.859c0-9.494-0.024-10.826-0.042-11.948   l-0.001-0.072C114.911,57.271,121.572,47.964,121.572,37.467z M63.944,109.789l-9.445-9.993c5.504-3.635,13.114-3.448,18.42,0.498   L63.944,109.789z M101.838,56.375c-0.036,0.01-0.06,0.037-0.095,0.049c-1.135,0.326-1.981,1.33-1.975,2.572l0.022,2.052   c0.018,1.068,0.04,2.33,0.042,10.776L76.639,96.36c-7.356-5.825-18.295-6.011-25.868-0.506L28.056,71.823   c0.003-8.468,0.022-9.716,0.04-10.787l0.022-2.042c0.006-1.239-0.838-2.243-1.971-2.57c-0.036-0.012-0.06-0.04-0.096-0.05   c-8.431-2.367-14.319-10.141-14.319-18.908c0-10.829,8.809-19.638,19.635-19.638c10.829,0,19.638,8.809,19.638,19.638   c0,0.932-0.209,1.834-0.338,2.749H37.672c-1.496,0-2.707,1.211-2.707,2.707s1.211,2.707,2.707,2.707h51.167   c1.496,0,2.707-1.211,2.707-2.707s-1.211-2.707-2.707-2.707h-11.62c-0.129-0.916-0.338-1.823-0.338-2.749   c0-10.829,8.809-19.638,19.638-19.638s19.638,8.809,19.638,19.638C116.157,46.234,110.269,54.008,101.838,56.375z"/></g></svg></svg> <defs><filter id="colors8714898138"><feColorMatrix type="matrix" values="0 0 0 0 0.80859375  0 0 0 0 0.8828125  0 0 0 0 0.94921875  0 0 0 1 0" class="icon-fecolormatrix"/></filter> <filter id="colorsf6294964635"><feColorMatrix type="matrix" values="0 0 0 0 0.99609375  0 0 0 0 0.99609375  0 0 0 0 0.99609375  0 0 0 1 0" class="icon-fecolormatrix"/></filter> <filter id="colorsb261488522"><feColorMatrix type="matrix" values="0 0 0 0 0  0 0 0 0 0  0 0 0 0 0  0 0 0 1 0" class="icon-fecolormatrix"/></filter></defs></g></g></mask></svg>